{
    "asset": {
        "generator": "FBX2glTF v0.9.7",
        "version": "2.0"
    },
    "scene": 0,
    "buffers": [
        {
            "byteLength": 56392,
            "uri": "buffer.bin"
        }
    ],
    "bufferViews": [
        {
            "buffer": 0,
            "byteLength": 5016,
            "byteOffset": 0,
            "target": 34963
        },
        {
            "buffer": 0,
            "byteLength": 7524,
            "byteOffset": 5016,
            "target": 34962
        },
        {
            "buffer": 0,
            "byteLength": 7524,
            "byteOffset": 12540,
            "target": 34962
        },
        {
            "buffer": 0,
            "byteLength": 10032,
            "byteOffset": 20064,
            "target": 34962
        },
        {
            "buffer": 0,
            "byteLength": 5016,
            "byteOffset": 30096,
            "target": 34962
        },
        {
            "buffer": 0,
            "byteLength": 5016,
            "byteOffset": 35112,
            "target": 34962
        },
        {
            "buffer": 0,
            "byteLength": 5016,
            "byteOffset": 40128,
            "target": 34962
        },
        {
            "buffer": 0,
            "byteLength": 10032,
            "byteOffset": 45144,
            "target": 34962
        },
        {
            "buffer": 0,
            "byteLength": 1216,
            "byteOffset": 55176
        }
    ],
    "scenes": [
        {
            "name": "Root Scene",
            "nodes": [
                0
            ]
        }
    ],
    "accessors": [
        {
            "componentType": 5123,
            "type": "SCALAR",
            "count": 2508,
            "bufferView": 0,
            "byteOffset": 0
        },
        {
            "componentType": 5126,
            "type": "VEC3",
            "count": 627,
            "bufferView": 1,
            "byteOffset": 0,
            "min": [
                -6.72042332894307e-08,
                -0.0029807707760483,
                -0.0020404951646924
            ],
            "max": [
                0.00982602778822184,
                0.00298077007755637,
                0.00204049306921661
            ]
        },
        {
            "componentType": 5126,
            "type": "VEC3",
            "count": 627,
            "bufferView": 2,
            "byteOffset": 0
        },
        {
            "componentType": 5126,
            "type": "VEC4",
            "count": 627,
            "bufferView": 3,
            "byteOffset": 0
        },
        {
            "componentType": 5126,
            "type": "VEC2",
            "count": 627,
            "bufferView": 4,
            "byteOffset": 0
        },
        {
            "componentType": 5126,
            "type": "VEC2",
            "count": 627,
            "bufferView": 5,
            "byteOffset": 0
        },
        {
            "componentType": 5123,
            "type": "VEC4",
            "count": 627,
            "bufferView": 6,
            "byteOffset": 0
        },
        {
            "componentType": 5126,
            "type": "VEC4",
            "count": 627,
            "bufferView": 7,
            "byteOffset": 0
        },
        {
            "componentType": 5126,
            "type": "MAT4",
            "count": 19,
            "bufferView": 8,
            "byteOffset": 0
        }
    ],
    "images": [
        {
            "name": "贴图 #0",
            "uri": "data:image/png;base64,"
        }
    ],
    "samplers": [
        {}
    ],
    "textures": [
        {
            "name": "贴图 #0",
            "sampler": 0,
            "source": 0
        }
    ],
    "materials": [
        {
            "name": "Material #2",
            "alphaMode": "OPAQUE",
            "extras": {
                "fromFBX": {
                    "shadingModel": "Phong",
                    "isTruePBR": false
                }
            },
            "pbrMetallicRoughness": {
                "baseColorTexture": {
                    "index": 0,
                    "texCoord": 0
                },
                "baseColorFactor": [
                    1.0,
                    1.0,
                    1.0,
                    1.0
                ],
                "metallicFactor": 0.400000005960464,
                "roughnessFactor": 0.70710676908493
            }
        }
    ],
    "meshes": [
        {
            "name": "muchangguanliyuan_01",
            "primitives": [
                {
                    "material": 0,
                    "mode": 4,
                    "attributes": {
                        "COLOR_0": 3,
                        "JOINTS_0": 6,
                        "NORMAL": 2,
                        "POSITION": 1,
                        "TEXCOORD_0": 4,
                        "TEXCOORD_1": 5,
                        "WEIGHTS_0": 7
                    },
                    "indices": 0
                }
            ]
        }
    ],
    "skins": [
        {
            "joints": [
                17,
                16,
                24,
                25,
                23,
                26,
                5,
                4,
                19,
                2,
                11,
                12,
                6,
                13,
                20,
                7,
                8,
                21,
                22
            ],
            "inverseBindMatrices": 8,
            "skeleton": 2
        }
    ],
    "nodes": [
        {
            "name": "RootNode",
            "translation": [
                0.0,
                0.0,
                0.0
            ],
            "rotation": [
                0.0,
                0.0,
                0.0,
                1.0
            ],
            "scale": [
                1.0,
                1.0,
                1.0
            ],
            "children": [
                1,
                2
            ]
        },
        {
            "name": "muchangguanliyuan_01",
            "translation": [
                0.0,
                0.0,
                0.0
            ],
            "rotation": [
                0.707106828689575,
                0.707106709480286,
                1.54543080554959e-08,
                1.54543116082095e-08
            ],
            "scale": [
                40.9290542602539,
                40.9290542602539,
                40.9290542602539
            ],
            "mesh": 0,
            "skin": 0
        },
        {
            "name": "Bip001",
            "translation": [
                -0.000454521155916154,
                0.126305505633354,
                -0.00835517048835754
            ],
            "rotation": [
                -0.500000357627869,
                -0.499999642372131,
                -0.499999642372131,
                0.500000357627869
            ],
            "scale": [
                0.999999940395355,
                0.999999940395355,
                1.0
            ],
            "children": [
                3,
                4
            ]
        },
        {
            "name": "Bip001 Footsteps",
            "translation": [
                0.0,
                0.0,
                -0.11020639538765
            ],
            "rotation": [
                -6.9213975221855e-34,
                6.92140670573511e-34,
                0.707106292247772,
                0.707107245922089
            ],
            "scale": [
                1.0,
                1.0,
                1.0
            ]
        },
        {
            "name": "Bip001 Pelvis",
            "translation": [
                0.0,
                0.0,
                0.0
            ],
            "rotation": [
                -0.5,
                -0.5,
                -0.499999314546585,
                0.500000715255737
            ],
            "scale": [
                1.0,
                0.999999940395355,
                0.999999940395355
            ],
            "children": [
                5
            ]
        },
        {
            "name": "Bip001 Spine",
            "translation": [
                0.0238645933568478,
                -5.33515194547363e-05,
                3.31178284795897e-08
            ],
            "rotation": [
                -2.05109586204344e-06,
                -7.00347015936131e-07,
                -0.0564826428890228,
                0.998403608798981
            ],
            "scale": [
                1.0,
                0.999999940395355,
                0.999999940395355
            ],
            "children": [
                6,
                11,
                16
            ]
        },
        {
            "name": "Bip001 L Thigh",
            "translation": [
                -0.0237183477729559,
                -0.00263860635459423,
                0.0198355223983526
            ],
            "rotation": [
                -0.375615894794464,
                0.925841748714447,
                -0.0172285307198763,
                -0.0378547981381416
            ],
            "scale": [
                1.0,
                0.999999940395355,
                1.00000011920929
            ],
            "children": [
                7
            ]
        },
        {
            "name": "Bip001 L Calf",
            "translation": [
                0.0628001317381859,
                0.0,
                2.38418573772492e-09
            ],
            "rotation": [
                2.27980179203929e-18,
                -4.34472398122354e-18,
                -0.297586679458618,
                0.954694807529449
            ],
            "scale": [
                1.0,
                1.0,
                1.00000011920929
            ],
            "children": [
                8
            ]
        },
        {
            "name": "Bip001 L Foot",
            "translation": [
                0.0523844808340073,
                9.53674295089968e-09,
                -4.76837147544984e-09
            ],
            "rotation": [
                0.0211577955633402,
                -0.0358074381947517,
                0.0288955960422754,
                0.998716771602631
            ],
            "scale": [
                0.99999988079071,
                0.999999940395355,
                0.99999988079071
            ],
            "children": [
                9
            ]
        },
        {
            "name": "Bip001 L Toe0",
            "translation": [
                0.0185116957873106,
                0.0223347507417202,
                0.0
            ],
            "rotation": [
                -1.54542423302928e-08,
                -1.54544022024083e-08,
                0.70710676908493,
                0.70710676908493
            ],
            "scale": [
                1.0,
                1.0,
                0.999999940395355
            ],
            "children": [
                10
            ]
        },
        {
            "name": "Bip001 L Toe0Nub",
            "translation": [
                0.00241456506773829,
                0.0,
                0.0
            ],
            "rotation": [
                1.32348890119875e-23,
                1.4210854715202e-14,
                1.0,
                -6.12323426292584e-17
            ],
            "scale": [
                -1.0,
                -1.0,
                -0.999999940395355
            ]
        },
        {
            "name": "Bip001 R Thigh",
            "translation": [
                -0.0237183477729559,
                -0.00263849482871592,
                -0.0198355335742235
            ],
            "rotation": [
                0.277019321918488,
                0.960607707500458,
                -0.00735903484746814,
                0.0209520291537046
            ],
            "scale": [
                1.0,
                1.0,
                1.00000011920929
            ],
            "children": [
                12
            ]
        },
        {
            "name": "Bip001 R Calf",
            "translation": [
                0.0628001317381859,
                9.53674295089968e-09,
                -4.44089199923895e-18
            ],
            "rotation": [
                -2.19452877666696e-19,
                -3.46249946198878e-18,
                -0.0632529854774475,
                0.997997522354126
            ],
            "scale": [
                1.0,
                1.00000011920929,
                1.00000011920929
            ],
            "children": [
                13
            ]
        },
        {
            "name": "Bip001 R Foot",
            "translation": [
                0.0523844808340073,
                -9.53674295089968e-09,
                0.0
            ],
            "rotation": [
                -0.00355846481397748,
                0.0219203401356936,
                0.0227192062884569,
                0.999495208263397
            ],
            "scale": [
                1.00000011920929,
                1.00000011920929,
                1.0
            ],
            "children": [
                14
            ]
        },
        {
            "name": "Bip001 R Toe0",
            "translation": [
                0.0185116976499557,
                0.0223347656428814,
                -2.38418573772492e-09
            ],
            "rotation": [
                -1.54542814101433e-08,
                -1.54543418062758e-08,
                0.70710676908493,
                0.70710676908493
            ],
            "scale": [
                1.0,
                1.0,
                1.0
            ],
            "children": [
                15
            ]
        },
        {
            "name": "Bip001 R Toe0Nub",
            "translation": [
                0.00241456017829478,
                4.76837147544984e-09,
                2.38418573772492e-09
            ],
            "rotation": [
                3.17637355220363e-22,
                -1.4210854715202e-14,
                1.49011611938477e-08,
                1.0
            ],
            "scale": [
                1.0,
                1.0,
                1.0
            ]
        },
        {
            "name": "Bip001 Neck",
            "translation": [
                0.0674523040652275,
                -1.38056275318377e-05,
                0.0
            ],
            "rotation": [
                1.57008024359584e-08,
                -7.12548114734091e-07,
                0.24848710000515,
                0.968635201454163
            ],
            "scale": [
                1.0,
                1.0,
                1.0
            ],
            "children": [
                17,
                19,
                23
            ]
        },
        {
            "name": "Bip001 Head",
            "translation": [
                0.0197722427546978,
                0.0,
                0.0
            ],
            "rotation": [
                1.27779582470566e-08,
                3.75155110532432e-07,
                -0.124469175934792,
                0.992223501205444
            ],
            "scale": [
                1.0,
                1.0,
                1.0
            ],
            "children": [
                18
            ]
        },
        {
            "name": "Bip001 HeadNub",
            "translation": [
                0.144661858677864,
                0.0,
                -6.93889374881086e-20
            ],
            "rotation": [
                2.48689923634717e-14,
                -1.42108530211361e-14,
                -2.77555723069065e-17,
                1.0
            ],
            "scale": [
                1.00000011920929,
                1.00000011920929,
                1.0
            ]
        },
        {
            "name": "Bip001 L Clavicle",
            "translation": [
                0.0,
                1.57165522978175e-05,
                0.00611829804256558
            ],
            "rotation": [
                0.622563302516937,
                -0.159973353147507,
                0.741941511631012,
                0.190646752715111
            ],
            "scale": [
                1.0,
                1.0,
                1.0
            ],
            "children": [
                20
            ]
        },
        {
            "name": "Bip001 L UpperArm",
            "translation": [
                0.0281012877821922,
                -2.38418573772492e-09,
                1.90734859017994e-08
            ],
            "rotation": [
                -0.161886647343636,
                0.496298164129257,
                -0.0966496840119362,
                0.847431242465973
            ],
            "scale": [
                1.0,
                1.00000011920929,
                1.0
            ],
            "children": [
                21
            ]
        },
        {
            "name": "Bip001 L Forearm",
            "translation": [
                0.0665261819958687,
                0.0,
                -1.77635679969558e-17
            ],
            "rotation": [
                -1.28588079994481e-17,
                5.21958328428412e-18,
                -0.3761106133461,
                0.926574766635895
            ],
            "scale": [
                1.0,
                1.0,
                1.0
            ],
            "children": [
                22
            ]
        },
        {
            "name": "Bip001 L Hand",
            "translation": [
                0.0509902164340019,
                -9.53674295089968e-09,
                1.77635679969558e-17
            ],
            "rotation": [
                -0.706825196743011,
                2.63522625942869e-09,
                2.63312882609057e-09,
                0.70738822221756
            ],
            "scale": [
                1.00000011920929,
                1.00000011920929,
                1.00000023841858
            ]
        },
        {
            "name": "Bip001 R Clavicle",
            "translation": [
                -3.55271359939116e-17,
                1.57547001435887e-05,
                -0.00611829943954945
            ],
            "rotation": [
                -0.614990293979645,
                0.158025503158569,
                0.748230755329132,
                0.192264392971992
            ],
            "scale": [
                1.00000011920929,
                1.0,
                1.00000011920929
            ],
            "children": [
                24
            ]
        },
        {
            "name": "Bip001 R UpperArm",
            "translation": [
                0.0281012915074825,
                -1.19209286886246e-09,
                -1.90734859017994e-08
            ],
            "rotation": [
                -0.373049229383469,
                -0.42947855591774,
                0.316786378622055,
                0.758965611457825
            ],
            "scale": [
                1.0,
                1.0,
                1.0
            ],
            "children": [
                25
            ]
        },
        {
            "name": "Bip001 R Forearm",
            "translation": [
                0.0665262043476105,
                -1.90734859017994e-08,
                -4.76837147544984e-09
            ],
            "rotation": [
                6.18409490367504e-18,
                2.70578768930813e-17,
                -0.22280552983284,
                0.974862933158875
            ],
            "scale": [
                1.00000011920929,
                1.00000011920929,
                1.00000011920929
            ],
            "children": [
                26
            ]
        },
        {
            "name": "Bip001 R Hand",
            "translation": [
                0.0509902164340019,
                9.53674295089968e-09,
                9.53674295089968e-09
            ],
            "rotation": [
                0.706825196743011,
                1.05409050377148e-08,
                -1.05325153043623e-08,
                0.70738822221756
            ],
            "scale": [
                1.00000011920929,
                1.0,
                1.00000011920929
            ]
        }
    ]
}