{
    "asset": {
        "generator": "FBX2glTF v0.9.7",
        "version": "2.0"
    },
    "scene": 0,
    "buffers": [
        {
            "byteLength": 145344,
            "uri": "buffer.bin"
        }
    ],
    "bufferViews": [
        {
            "buffer": 0,
            "byteLength": 10782,
            "byteOffset": 0,
            "target": 34963
        },
        {
            "buffer": 0,
            "byteLength": 43500,
            "byteOffset": 10784,
            "target": 34962
        },
        {
            "buffer": 0,
            "byteLength": 43500,
            "byteOffset": 54284,
            "target": 34962
        },
        {
            "buffer": 0,
            "byteLength": 29000,
            "byteOffset": 97784,
            "target": 34962
        },
        {
            "buffer": 0,
            "byteLength": 240,
            "byteOffset": 126784,
            "target": 34963
        },
        {
            "buffer": 0,
            "byteLength": 1440,
            "byteOffset": 127024,
            "target": 34962
        },
        {
            "buffer": 0,
            "byteLength": 1440,
            "byteOffset": 128464,
            "target": 34962
        },
        {
            "buffer": 0,
            "byteLength": 960,
            "byteOffset": 129904,
            "target": 34962
        },
        {
            "buffer": 0,
            "byteLength": 240,
            "byteOffset": 130864,
            "target": 34963
        },
        {
            "buffer": 0,
            "byteLength": 1440,
            "byteOffset": 131104,
            "target": 34962
        },
        {
            "buffer": 0,
            "byteLength": 1440,
            "byteOffset": 132544,
            "target": 34962
        },
        {
            "buffer": 0,
            "byteLength": 960,
            "byteOffset": 133984,
            "target": 34962
        },
        {
            "buffer": 0,
            "byteLength": 240,
            "byteOffset": 134944,
            "target": 34963
        },
        {
            "buffer": 0,
            "byteLength": 1440,
            "byteOffset": 135184,
            "target": 34962
        },
        {
            "buffer": 0,
            "byteLength": 1440,
            "byteOffset": 136624,
            "target": 34962
        },
        {
            "buffer": 0,
            "byteLength": 960,
            "byteOffset": 138064,
            "target": 34962
        },
        {
            "buffer": 0,
            "byteLength": 240,
            "byteOffset": 139024,
            "target": 34963
        },
        {
            "buffer": 0,
            "byteLength": 1440,
            "byteOffset": 139264,
            "target": 34962
        },
        {
            "buffer": 0,
            "byteLength": 1440,
            "byteOffset": 140704,
            "target": 34962
        },
        {
            "buffer": 0,
            "byteLength": 960,
            "byteOffset": 142144,
            "target": 34962
        },
        {
            "buffer": 0,
            "byteLength": 192,
            "byteOffset": 143104,
            "target": 34963
        },
        {
            "buffer": 0,
            "byteLength": 768,
            "byteOffset": 143296,
            "target": 34962
        },
        {
            "buffer": 0,
            "byteLength": 768,
            "byteOffset": 144064,
            "target": 34962
        },
        {
            "buffer": 0,
            "byteLength": 512,
            "byteOffset": 144832,
            "target": 34962
        }
    ],
    "scenes": [
        {
            "name": "Root Scene",
            "nodes": [
                0
            ]
        }
    ],
    "accessors": [
        {
            "componentType": 5123,
            "type": "SCALAR",
            "count": 5391,
            "bufferView": 0,
            "byteOffset": 0
        },
        {
            "componentType": 5126,
            "type": "VEC3",
            "count": 3625,
            "bufferView": 1,
            "byteOffset": 0,
            "min": [
                -0.0492656826972961,
                -0.0884276479482651,
                0.0124603379517794
            ],
            "max": [
                0.0470513179898262,
                0.0894032046198845,
                0.0837366953492165
            ]
        },
        {
            "componentType": 5126,
            "type": "VEC3",
            "count": 3625,
            "bufferView": 2,
            "byteOffset": 0
        },
        {
            "componentType": 5126,
            "type": "VEC2",
            "count": 3625,
            "bufferView": 3,
            "byteOffset": 0
        },
        {
            "componentType": 5123,
            "type": "SCALAR",
            "count": 120,
            "bufferView": 4,
            "byteOffset": 0
        },
        {
            "componentType": 5126,
            "type": "VEC3",
            "count": 120,
            "bufferView": 5,
            "byteOffset": 0,
            "min": [
                -0.00728471064940095,
                -0.0135663915425539,
                -0.0130294309929013
            ],
            "max": [
                0.00724530033767223,
                0.0135663831606507,
                0.014388064853847
            ]
        },
        {
            "componentType": 5126,
            "type": "VEC3",
            "count": 120,
            "bufferView": 6,
            "byteOffset": 0
        },
        {
            "componentType": 5126,
            "type": "VEC2",
            "count": 120,
            "bufferView": 7,
            "byteOffset": 0
        },
        {
            "componentType": 5123,
            "type": "SCALAR",
            "count": 120,
            "bufferView": 8,
            "byteOffset": 0
        },
        {
            "componentType": 5126,
            "type": "VEC3",
            "count": 120,
            "bufferView": 9,
            "byteOffset": 0,
            "min": [
                -0.00509336637333035,
                -0.0135664092376828,
                -0.0129982680082321
            ],
            "max": [
                0.00941041205078363,
                0.0135663542896509,
                0.014419230632484
            ]
        },
        {
            "componentType": 5126,
            "type": "VEC3",
            "count": 120,
            "bufferView": 10,
            "byteOffset": 0
        },
        {
            "componentType": 5126,
            "type": "VEC2",
            "count": 120,
            "bufferView": 11,
            "byteOffset": 0
        },
        {
            "componentType": 5123,
            "type": "SCALAR",
            "count": 120,
            "bufferView": 12,
            "byteOffset": 0
        },
        {
            "componentType": 5126,
            "type": "VEC3",
            "count": 120,
            "bufferView": 13,
            "byteOffset": 0,
            "min": [
                -0.00728476885706186,
                -0.0135663980618119,
                -0.0130294114351273
            ],
            "max": [
                0.00724535575136542,
                0.013566367328167,
                0.0143880937248468
            ]
        },
        {
            "componentType": 5126,
            "type": "VEC3",
            "count": 120,
            "bufferView": 14,
            "byteOffset": 0
        },
        {
            "componentType": 5126,
            "type": "VEC2",
            "count": 120,
            "bufferView": 15,
            "byteOffset": 0
        },
        {
            "componentType": 5123,
            "type": "SCALAR",
            "count": 120,
            "bufferView": 16,
            "byteOffset": 0
        },
        {
            "componentType": 5126,
            "type": "VEC3",
            "count": 120,
            "bufferView": 17,
            "byteOffset": 0,
            "min": [
                -0.00509337661787868,
                -0.0135663971304893,
                -0.012998316437006
            ],
            "max": [
                0.00941047817468643,
                0.0135663561522961,
                0.0144191812723875
            ]
        },
        {
            "componentType": 5126,
            "type": "VEC3",
            "count": 120,
            "bufferView": 18,
            "byteOffset": 0
        },
        {
            "componentType": 5126,
            "type": "VEC2",
            "count": 120,
            "bufferView": 19,
            "byteOffset": 0
        },
        {
            "componentType": 5123,
            "type": "SCALAR",
            "count": 96,
            "bufferView": 20,
            "byteOffset": 0
        },
        {
            "componentType": 5126,
            "type": "VEC3",
            "count": 64,
            "bufferView": 21,
            "byteOffset": 0,
            "min": [
                -0.0445899814367294,
                -0.00696089118719101,
                -0.00496030272915959
            ],
            "max": [
                0.0445797480642796,
                0.00696961395442486,
                0.00495350873097777
            ]
        },
        {
            "componentType": 5126,
            "type": "VEC3",
            "count": 64,
            "bufferView": 22,
            "byteOffset": 0
        },
        {
            "componentType": 5126,
            "type": "VEC2",
            "count": 64,
            "bufferView": 23,
            "byteOffset": 0
        }
    ],
    "images": [
        {
            "name": "taxi01.jpg",
            "uri": "taxi01.jpg"
        }
    ],
    "samplers": [
        {}
    ],
    "textures": [
        {
            "name": "贴图 #13",
            "sampler": 0,
            "source": 0
        }
    ],
    "materials": [
        {
            "name": "Material #13",
            "alphaMode": "OPAQUE",
            "extras": {
                "fromFBX": {
                    "shadingModel": "Phong",
                    "isTruePBR": false
                }
            },
            "pbrMetallicRoughness": {
                "baseColorTexture": {
                    "index": 0,
                    "texCoord": 0
                },
                "baseColorFactor": [
                    1.0,
                    1.0,
                    1.0,
                    1.0
                ],
                "metallicFactor": 0.400000005960464,
                "roughnessFactor": 0.70710676908493
            }
        }
    ],
    "meshes": [
        {
            "name": "chuzu02",
            "primitives": [
                {
                    "material": 0,
                    "mode": 4,
                    "attributes": {
                        "NORMAL": 2,
                        "POSITION": 1,
                        "TEXCOORD_0": 3
                    },
                    "indices": 0
                }
            ]
        },
        {
            "name": "tyre4",
            "primitives": [
                {
                    "material": 0,
                    "mode": 4,
                    "attributes": {
                        "NORMAL": 6,
                        "POSITION": 5,
                        "TEXCOORD_0": 7
                    },
                    "indices": 4
                }
            ]
        },
        {
            "name": "tyre1",
            "primitives": [
                {
                    "material": 0,
                    "mode": 4,
                    "attributes": {
                        "NORMAL": 10,
                        "POSITION": 9,
                        "TEXCOORD_0": 11
                    },
                    "indices": 8
                }
            ]
        },
        {
            "name": "tyre2",
            "primitives": [
                {
                    "material": 0,
                    "mode": 4,
                    "attributes": {
                        "NORMAL": 14,
                        "POSITION": 13,
                        "TEXCOORD_0": 15
                    },
                    "indices": 12
                }
            ]
        },
        {
            "name": "tyre3",
            "primitives": [
                {
                    "material": 0,
                    "mode": 4,
                    "attributes": {
                        "NORMAL": 18,
                        "POSITION": 17,
                        "TEXCOORD_0": 19
                    },
                    "indices": 16
                }
            ]
        },
        {
            "name": "light1",
            "primitives": [
                {
                    "material": 0,
                    "mode": 4,
                    "attributes": {
                        "NORMAL": 22,
                        "POSITION": 21,
                        "TEXCOORD_0": 23
                    },
                    "indices": 20
                }
            ]
        }
    ],
    "nodes": [
        {
            "name": "RootNode",
            "translation": [
                0.0,
                0.0,
                0.0
            ],
            "rotation": [
                0.0,
                0.0,
                0.0,
                1.0
            ],
            "scale": [
                1.0,
                1.0,
                1.0
            ],
            "children": [
                1,
                2,
                3,
                4,
                5,
                6
            ]
        },
        {
            "name": "chuzu02",
            "translation": [
                0.0,
                0.0,
                0.0
            ],
            "rotation": [
                0.700909078121185,
                -6.12754220696843e-08,
                -6.23543456867992e-08,
                0.713250637054443
            ],
            "scale": [
                -6.23844623565674,
                -6.23844623565674,
                -6.0649094581604
            ],
            "mesh": 0
        },
        {
            "name": "tyre4",
            "translation": [
                0.237070500850677,
                0.08955068141222,
                -0.338036328554153
            ],
            "rotation": [
                0.707106649875641,
                6.18172393274108e-08,
                9.33414298951536e-15,
                0.70710688829422
            ],
            "scale": [
                -6.23844623565674,
                -6.23844623565674,
                -6.0649094581604
            ],
            "mesh": 1
        },
        {
            "name": "tyre1",
            "translation": [
                -0.237846583127975,
                0.0895507112145424,
                0.291596740484238
            ],
            "rotation": [
                0.707106590270996,
                6.18172393274108e-08,
                1.47383783644225e-14,
                0.707106947898865
            ],
            "scale": [
                -6.23844623565674,
                -6.23844623565674,
                -6.0649094581604
            ],
            "mesh": 2
        },
        {
            "name": "tyre2",
            "translation": [
                0.237070590257645,
                0.089550644159317,
                0.291596621274948
            ],
            "rotation": [
                0.707106590270996,
                6.18172393274108e-08,
                1.47383783644225e-14,
                0.707106947898865
            ],
            "scale": [
                -6.23844623565674,
                -6.23844623565674,
                -6.0649094581604
            ],
            "mesh": 3
        },
        {
            "name": "tyre3",
            "translation": [
                -0.237846672534943,
                0.089550718665123,
                -0.338036239147186
            ],
            "rotation": [
                0.707106590270996,
                6.18172393274108e-08,
                1.47383783644225e-14,
                0.707106947898865
            ],
            "scale": [
                -6.23844623565674,
                -6.23844623565674,
                -6.0649094581604
            ],
            "mesh": 4
        },
        {
            "name": "light1",
            "translation": [
                0.0064697596244514,
                0.227475345134735,
                0.500026047229767
            ],
            "rotation": [
                0.700909078121185,
                -6.12754149642569e-08,
                -6.23543527922266e-08,
                0.713250637054443
            ],
            "scale": [
                -6.23844623565674,
                -6.23844623565674,
                -6.06491041183472
            ],
            "mesh": 5
        }
    ]
}