{
    "asset": {
        "generator": "FBX2glTF v0.9.7",
        "version": "2.0"
    },
    "scene": 0,
    "buffers": [
        {
            "byteLength": 44068,
            "uri": "buffer.bin"
        }
    ],
    "bufferViews": [
        {
            "buffer": 0,
            "byteLength": 4932,
            "byteOffset": 0,
            "target": 34963
        },
        {
            "buffer": 0,
            "byteLength": 11172,
            "byteOffset": 4932,
            "target": 34962
        },
        {
            "buffer": 0,
            "byteLength": 11172,
            "byteOffset": 16104,
            "target": 34962
        },
        {
            "buffer": 0,
            "byteLength": 7448,
            "byteOffset": 27276,
            "target": 34962
        },
        {
            "buffer": 0,
            "byteLength": 96,
            "byteOffset": 34724,
            "target": 34963
        },
        {
            "buffer": 0,
            "byteLength": 216,
            "byteOffset": 34820,
            "target": 34962
        },
        {
            "buffer": 0,
            "byteLength": 216,
            "byteOffset": 35036,
            "target": 34962
        },
        {
            "buffer": 0,
            "byteLength": 144,
            "byteOffset": 35252,
            "target": 34962
        },
        {
            "buffer": 0,
            "byteLength": 312,
            "byteOffset": 35396,
            "target": 34963
        },
        {
            "buffer": 0,
            "byteLength": 696,
            "byteOffset": 35708,
            "target": 34962
        },
        {
            "buffer": 0,
            "byteLength": 696,
            "byteOffset": 36404,
            "target": 34962
        },
        {
            "buffer": 0,
            "byteLength": 464,
            "byteOffset": 37100,
            "target": 34962
        },
        {
            "buffer": 0,
            "byteLength": 312,
            "byteOffset": 37564,
            "target": 34963
        },
        {
            "buffer": 0,
            "byteLength": 696,
            "byteOffset": 37876,
            "target": 34962
        },
        {
            "buffer": 0,
            "byteLength": 696,
            "byteOffset": 38572,
            "target": 34962
        },
        {
            "buffer": 0,
            "byteLength": 464,
            "byteOffset": 39268,
            "target": 34962
        },
        {
            "buffer": 0,
            "byteLength": 312,
            "byteOffset": 39732,
            "target": 34963
        },
        {
            "buffer": 0,
            "byteLength": 696,
            "byteOffset": 40044,
            "target": 34962
        },
        {
            "buffer": 0,
            "byteLength": 696,
            "byteOffset": 40740,
            "target": 34962
        },
        {
            "buffer": 0,
            "byteLength": 464,
            "byteOffset": 41436,
            "target": 34962
        },
        {
            "buffer": 0,
            "byteLength": 312,
            "byteOffset": 41900,
            "target": 34963
        },
        {
            "buffer": 0,
            "byteLength": 696,
            "byteOffset": 42212,
            "target": 34962
        },
        {
            "buffer": 0,
            "byteLength": 696,
            "byteOffset": 42908,
            "target": 34962
        },
        {
            "buffer": 0,
            "byteLength": 464,
            "byteOffset": 43604,
            "target": 34962
        }
    ],
    "scenes": [
        {
            "name": "Root Scene",
            "nodes": [
                0
            ]
        }
    ],
    "accessors": [
        {
            "componentType": 5123,
            "type": "SCALAR",
            "count": 2466,
            "bufferView": 0,
            "byteOffset": 0
        },
        {
            "componentType": 5126,
            "type": "VEC3",
            "count": 931,
            "bufferView": 1,
            "byteOffset": 0,
            "min": [
                -0.0103601263836026,
                -0.0208722911775112,
                0.00333475274965167
            ],
            "max": [
                0.0103831356391311,
                0.0214333441108465,
                0.0160333663225174
            ]
        },
        {
            "componentType": 5126,
            "type": "VEC3",
            "count": 931,
            "bufferView": 2,
            "byteOffset": 0
        },
        {
            "componentType": 5126,
            "type": "VEC2",
            "count": 931,
            "bufferView": 3,
            "byteOffset": 0
        },
        {
            "componentType": 5123,
            "type": "SCALAR",
            "count": 48,
            "bufferView": 4,
            "byteOffset": 0
        },
        {
            "componentType": 5126,
            "type": "VEC3",
            "count": 18,
            "bufferView": 5,
            "byteOffset": 0,
            "min": [
                -0.00882700551301241,
                -0.000660328834783286,
                -0.00193857611157
            ],
            "max": [
                0.00882700551301241,
                0.000660327670630068,
                0.00193857541307807
            ]
        },
        {
            "componentType": 5126,
            "type": "VEC3",
            "count": 18,
            "bufferView": 6,
            "byteOffset": 0
        },
        {
            "componentType": 5126,
            "type": "VEC2",
            "count": 18,
            "bufferView": 7,
            "byteOffset": 0
        },
        {
            "componentType": 5123,
            "type": "SCALAR",
            "count": 156,
            "bufferView": 8,
            "byteOffset": 0
        },
        {
            "componentType": 5126,
            "type": "VEC3",
            "count": 58,
            "bufferView": 9,
            "byteOffset": 0,
            "min": [
                -0.00145636789966375,
                -0.00358757004141808,
                -0.00349761568941176
            ],
            "max": [
                0.00145635835360736,
                0.00358756701461971,
                0.00349761685356498
            ]
        },
        {
            "componentType": 5126,
            "type": "VEC3",
            "count": 58,
            "bufferView": 10,
            "byteOffset": 0
        },
        {
            "componentType": 5126,
            "type": "VEC2",
            "count": 58,
            "bufferView": 11,
            "byteOffset": 0
        },
        {
            "componentType": 5123,
            "type": "SCALAR",
            "count": 156,
            "bufferView": 12,
            "byteOffset": 0
        },
        {
            "componentType": 5126,
            "type": "VEC3",
            "count": 58,
            "bufferView": 13,
            "byteOffset": 0,
            "min": [
                -0.00115968764293939,
                -0.0035875653848052,
                -0.00349761499091983
            ],
            "max": [
                0.00115968880709261,
                0.00358756468631327,
                0.00349761778488755
            ]
        },
        {
            "componentType": 5126,
            "type": "VEC3",
            "count": 58,
            "bufferView": 14,
            "byteOffset": 0
        },
        {
            "componentType": 5126,
            "type": "VEC2",
            "count": 58,
            "bufferView": 15,
            "byteOffset": 0
        },
        {
            "componentType": 5123,
            "type": "SCALAR",
            "count": 156,
            "bufferView": 16,
            "byteOffset": 0
        },
        {
            "componentType": 5126,
            "type": "VEC3",
            "count": 58,
            "bufferView": 17,
            "byteOffset": 0,
            "min": [
                -0.00145636789966375,
                -0.00358757004141808,
                -0.00349761568941176
            ],
            "max": [
                0.00145635835360736,
                0.00358756701461971,
                0.00349761685356498
            ]
        },
        {
            "componentType": 5126,
            "type": "VEC3",
            "count": 58,
            "bufferView": 18,
            "byteOffset": 0
        },
        {
            "componentType": 5126,
            "type": "VEC2",
            "count": 58,
            "bufferView": 19,
            "byteOffset": 0
        },
        {
            "componentType": 5123,
            "type": "SCALAR",
            "count": 156,
            "bufferView": 20,
            "byteOffset": 0
        },
        {
            "componentType": 5126,
            "type": "VEC3",
            "count": 58,
            "bufferView": 21,
            "byteOffset": 0,
            "min": [
                -0.00115968764293939,
                -0.0035875653848052,
                -0.00349761499091983
            ],
            "max": [
                0.00115968880709261,
                0.00358756468631327,
                0.00349761778488755
            ]
        },
        {
            "componentType": 5126,
            "type": "VEC3",
            "count": 58,
            "bufferView": 22,
            "byteOffset": 0
        },
        {
            "componentType": 5126,
            "type": "VEC2",
            "count": 58,
            "bufferView": 23,
            "byteOffset": 0
        }
    ],
    "images": [
        {
            "name": "taxi07Black.png",
            "uri": "taxi07Black.png"
        }
    ],
    "samplers": [
        {}
    ],
    "textures": [
        {
            "name": "贴图 #14",
            "sampler": 0,
            "source": 0
        }
    ],
    "materials": [
        {
            "name": "Material #26",
            "alphaMode": "BLEND",
            "extras": {
                "fromFBX": {
                    "shadingModel": "Phong",
                    "isTruePBR": false
                }
            },
            "pbrMetallicRoughness": {
                "baseColorTexture": {
                    "index": 0,
                    "texCoord": 0
                },
                "baseColorFactor": [
                    1.0,
                    1.0,
                    1.0,
                    1.0
                ],
                "metallicFactor": 0.400000005960464,
                "roughnessFactor": 0.70710676908493
            }
        }
    ],
    "meshes": [
        {
            "name": "passat",
            "primitives": [
                {
                    "material": 0,
                    "mode": 4,
                    "attributes": {
                        "NORMAL": 2,
                        "POSITION": 1,
                        "TEXCOORD_0": 3
                    },
                    "indices": 0
                }
            ]
        },
        {
            "name": "light1",
            "primitives": [
                {
                    "material": 0,
                    "mode": 4,
                    "attributes": {
                        "NORMAL": 6,
                        "POSITION": 5,
                        "TEXCOORD_0": 7
                    },
                    "indices": 4
                }
            ]
        },
        {
            "name": "tyre2",
            "primitives": [
                {
                    "material": 0,
                    "mode": 4,
                    "attributes": {
                        "NORMAL": 10,
                        "POSITION": 9,
                        "TEXCOORD_0": 11
                    },
                    "indices": 8
                }
            ]
        },
        {
            "name": "tyre4",
            "primitives": [
                {
                    "material": 0,
                    "mode": 4,
                    "attributes": {
                        "NORMAL": 14,
                        "POSITION": 13,
                        "TEXCOORD_0": 15
                    },
                    "indices": 12
                }
            ]
        },
        {
            "name": "tyre1",
            "primitives": [
                {
                    "material": 0,
                    "mode": 4,
                    "attributes": {
                        "NORMAL": 18,
                        "POSITION": 17,
                        "TEXCOORD_0": 19
                    },
                    "indices": 16
                }
            ]
        },
        {
            "name": "tyre3",
            "primitives": [
                {
                    "material": 0,
                    "mode": 4,
                    "attributes": {
                        "NORMAL": 22,
                        "POSITION": 21,
                        "TEXCOORD_0": 23
                    },
                    "indices": 20
                }
            ]
        }
    ],
    "nodes": [
        {
            "name": "RootNode",
            "translation": [
                0.0,
                0.0,
                0.0
            ],
            "rotation": [
                0.0,
                0.0,
                0.0,
                1.0
            ],
            "scale": [
                1.0,
                1.0,
                1.0
            ],
            "children": [
                1,
                2,
                3,
                4,
                5,
                6
            ]
        },
        {
            "name": "passat",
            "translation": [
                -2.367868910369e-05,
                0.0,
                0.0
            ],
            "rotation": [
                0.707106351852417,
                8.42937524225817e-08,
                -8.42936458411714e-08,
                0.707107245922089
            ],
            "scale": [
                -29.8984661102295,
                -29.8984661102295,
                -29.8984661102295
            ],
            "mesh": 0
        },
        {
            "name": "light1",
            "translation": [
                -0.000367594504496083,
                0.241630688309669,
                0.574669778347015
            ],
            "rotation": [
                -5.33850439410344e-08,
                0.707107245922089,
                -0.707106292247772,
                -5.3385114995308e-08
            ],
            "scale": [
                -29.8984661102295,
                -29.8984661102295,
                -29.8984661102295
            ],
            "mesh": 1
        },
        {
            "name": "tyre2",
            "translation": [
                0.254214406013489,
                0.11164478212595,
                0.317976444959641
            ],
            "rotation": [
                0.707106292247772,
                1.06770229990616e-07,
                -1.06770087882069e-07,
                0.707107245922089
            ],
            "scale": [
                -29.8984661102295,
                -29.8984661102295,
                -29.8984661102295
            ],
            "mesh": 2
        },
        {
            "name": "tyre4",
            "translation": [
                0.254214346408844,
                0.111645139753819,
                -0.36472949385643
            ],
            "rotation": [
                0.707106292247772,
                1.06770229990616e-07,
                -1.06770087882069e-07,
                0.707107245922089
            ],
            "scale": [
                -29.8984661102295,
                -29.8984661102295,
                -29.8984661102295
            ],
            "mesh": 3
        },
        {
            "name": "tyre1",
            "translation": [
                -0.255069851875305,
                0.11164478212595,
                0.317976444959641
            ],
            "rotation": [
                0.707106292247772,
                1.06770229990616e-07,
                -1.06770087882069e-07,
                0.707107245922089
            ],
            "scale": [
                29.8984661102295,
                29.8984661102295,
                29.8984661102295
            ],
            "mesh": 4
        },
        {
            "name": "tyre3",
            "translation": [
                -0.255069881677628,
                0.111645139753819,
                -0.36472949385643
            ],
            "rotation": [
                0.707106292247772,
                1.06770229990616e-07,
                -1.06770087882069e-07,
                0.707107245922089
            ],
            "scale": [
                29.8984661102295,
                29.8984661102295,
                29.8984661102295
            ],
            "mesh": 5
        }
    ]
}