{
    "asset": {
        "generator": "FBX2glTF v0.9.7",
        "version": "2.0"
    },
    "scene": 0,
    "buffers": [
        {
            "byteLength": 125188,
            "uri": "buffer.bin"
        }
    ],
    "bufferViews": [
        {
            "buffer": 0,
            "byteLength": 4,
            "byteOffset": 0
        },
        {
            "buffer": 0,
            "byteLength": 16,
            "byteOffset": 4
        },
        {
            "buffer": 0,
            "byteLength": 16,
            "byteOffset": 20
        },
        {
            "buffer": 0,
            "byteLength": 1200,
            "byteOffset": 36,
            "target": 34963
        },
        {
            "buffer": 0,
            "byteLength": 5124,
            "byteOffset": 1236,
            "target": 34962
        },
        {
            "buffer": 0,
            "byteLength": 5124,
            "byteOffset": 6360,
            "target": 34962
        },
        {
            "buffer": 0,
            "byteLength": 3416,
            "byteOffset": 11484,
            "target": 34962
        },
        {
            "buffer": 0,
            "byteLength": 1200,
            "byteOffset": 14900,
            "target": 34963
        },
        {
            "buffer": 0,
            "byteLength": 5124,
            "byteOffset": 16100,
            "target": 34962
        },
        {
            "buffer": 0,
            "byteLength": 5124,
            "byteOffset": 21224,
            "target": 34962
        },
        {
            "buffer": 0,
            "byteLength": 3416,
            "byteOffset": 26348,
            "target": 34962
        },
        {
            "buffer": 0,
            "byteLength": 1200,
            "byteOffset": 29764,
            "target": 34963
        },
        {
            "buffer": 0,
            "byteLength": 5124,
            "byteOffset": 30964,
            "target": 34962
        },
        {
            "buffer": 0,
            "byteLength": 5124,
            "byteOffset": 36088,
            "target": 34962
        },
        {
            "buffer": 0,
            "byteLength": 3416,
            "byteOffset": 41212,
            "target": 34962
        },
        {
            "buffer": 0,
            "byteLength": 1200,
            "byteOffset": 44628,
            "target": 34963
        },
        {
            "buffer": 0,
            "byteLength": 5124,
            "byteOffset": 45828,
            "target": 34962
        },
        {
            "buffer": 0,
            "byteLength": 5124,
            "byteOffset": 50952,
            "target": 34962
        },
        {
            "buffer": 0,
            "byteLength": 3416,
            "byteOffset": 56076,
            "target": 34962
        },
        {
            "buffer": 0,
            "byteLength": 5856,
            "byteOffset": 59492,
            "target": 34963
        },
        {
            "buffer": 0,
            "byteLength": 21552,
            "byteOffset": 65348,
            "target": 34962
        },
        {
            "buffer": 0,
            "byteLength": 21552,
            "byteOffset": 86900,
            "target": 34962
        },
        {
            "buffer": 0,
            "byteLength": 14368,
            "byteOffset": 108452,
            "target": 34962
        },
        {
            "buffer": 0,
            "byteLength": 192,
            "byteOffset": 122820,
            "target": 34963
        },
        {
            "buffer": 0,
            "byteLength": 816,
            "byteOffset": 123012,
            "target": 34962
        },
        {
            "buffer": 0,
            "byteLength": 816,
            "byteOffset": 123828,
            "target": 34962
        },
        {
            "buffer": 0,
            "byteLength": 544,
            "byteOffset": 124644,
            "target": 34962
        }
    ],
    "scenes": [
        {
            "name": "Root Scene",
            "nodes": [
                0
            ]
        }
    ],
    "accessors": [
        {
            "componentType": 5126,
            "type": "SCALAR",
            "count": 1,
            "bufferView": 0,
            "byteOffset": 0,
            "min": [
                0.0
            ],
            "max": [
                0.0
            ]
        },
        {
            "componentType": 5126,
            "type": "VEC4",
            "count": 1,
            "bufferView": 1,
            "byteOffset": 0
        },
        {
            "componentType": 5126,
            "type": "VEC4",
            "count": 1,
            "bufferView": 2,
            "byteOffset": 0
        },
        {
            "componentType": 5123,
            "type": "SCALAR",
            "count": 600,
            "bufferView": 3,
            "byteOffset": 0
        },
        {
            "componentType": 5126,
            "type": "VEC3",
            "count": 427,
            "bufferView": 4,
            "byteOffset": 0,
            "min": [
                -0.000293904973659664,
                -0.000735841516871005,
                -0.000735840876586735
            ],
            "max": [
                0.000293905439320952,
                0.000735842273570597,
                0.000735840993002057
            ]
        },
        {
            "componentType": 5126,
            "type": "VEC3",
            "count": 427,
            "bufferView": 5,
            "byteOffset": 0
        },
        {
            "componentType": 5126,
            "type": "VEC2",
            "count": 427,
            "bufferView": 6,
            "byteOffset": 0
        },
        {
            "componentType": 5123,
            "type": "SCALAR",
            "count": 600,
            "bufferView": 7,
            "byteOffset": 0
        },
        {
            "componentType": 5126,
            "type": "VEC3",
            "count": 427,
            "bufferView": 8,
            "byteOffset": 0,
            "min": [
                -0.000293904973659664,
                -0.000735841516871005,
                -0.000735840876586735
            ],
            "max": [
                0.000293905439320952,
                0.000735842273570597,
                0.000735840993002057
            ]
        },
        {
            "componentType": 5126,
            "type": "VEC3",
            "count": 427,
            "bufferView": 9,
            "byteOffset": 0
        },
        {
            "componentType": 5126,
            "type": "VEC2",
            "count": 427,
            "bufferView": 10,
            "byteOffset": 0
        },
        {
            "componentType": 5123,
            "type": "SCALAR",
            "count": 600,
            "bufferView": 11,
            "byteOffset": 0
        },
        {
            "componentType": 5126,
            "type": "VEC3",
            "count": 427,
            "bufferView": 12,
            "byteOffset": 0,
            "min": [
                -0.000293904973659664,
                -0.000735841516871005,
                -0.000735840876586735
            ],
            "max": [
                0.000293905439320952,
                0.000735842273570597,
                0.000735840993002057
            ]
        },
        {
            "componentType": 5126,
            "type": "VEC3",
            "count": 427,
            "bufferView": 13,
            "byteOffset": 0
        },
        {
            "componentType": 5126,
            "type": "VEC2",
            "count": 427,
            "bufferView": 14,
            "byteOffset": 0
        },
        {
            "componentType": 5123,
            "type": "SCALAR",
            "count": 600,
            "bufferView": 15,
            "byteOffset": 0
        },
        {
            "componentType": 5126,
            "type": "VEC3",
            "count": 427,
            "bufferView": 16,
            "byteOffset": 0,
            "min": [
                -0.000293904973659664,
                -0.000735841516871005,
                -0.000735840876586735
            ],
            "max": [
                0.000293905439320952,
                0.000735842273570597,
                0.000735840993002057
            ]
        },
        {
            "componentType": 5126,
            "type": "VEC3",
            "count": 427,
            "bufferView": 17,
            "byteOffset": 0
        },
        {
            "componentType": 5126,
            "type": "VEC2",
            "count": 427,
            "bufferView": 18,
            "byteOffset": 0
        },
        {
            "componentType": 5123,
            "type": "SCALAR",
            "count": 2928,
            "bufferView": 19,
            "byteOffset": 0
        },
        {
            "componentType": 5126,
            "type": "VEC3",
            "count": 1796,
            "bufferView": 20,
            "byteOffset": 0,
            "min": [
                -0.0022984619718045,
                -0.00469684274867177,
                0.000653553754091263
            ],
            "max": [
                0.0022984619718045,
                0.00450683804228902,
                0.00423849141225219
            ]
        },
        {
            "componentType": 5126,
            "type": "VEC3",
            "count": 1796,
            "bufferView": 21,
            "byteOffset": 0
        },
        {
            "componentType": 5126,
            "type": "VEC2",
            "count": 1796,
            "bufferView": 22,
            "byteOffset": 0
        },
        {
            "componentType": 5123,
            "type": "SCALAR",
            "count": 96,
            "bufferView": 23,
            "byteOffset": 0
        },
        {
            "componentType": 5126,
            "type": "VEC3",
            "count": 68,
            "bufferView": 24,
            "byteOffset": 0,
            "min": [
                -0.00182495662011206,
                -0.000202787210582756,
                -0.000422804878326133
            ],
            "max": [
                0.00182495673652738,
                0.000202787516172975,
                0.000422804878326133
            ]
        },
        {
            "componentType": 5126,
            "type": "VEC3",
            "count": 68,
            "bufferView": 25,
            "byteOffset": 0
        },
        {
            "componentType": 5126,
            "type": "VEC2",
            "count": 68,
            "bufferView": 26,
            "byteOffset": 0
        }
    ],
    "images": [
        {
            "name": "taxi06Gray.png",
            "uri": "taxi06Gray.png"
        },
        {
            "name": "贴图 #11",
            "uri": "data:image/png;base64,"
        }
    ],
    "samplers": [
        {}
    ],
    "textures": [
        {
            "name": "贴图 #19",
            "sampler": 0,
            "source": 0
        },
        {
            "name": "贴图 #11",
            "sampler": 0,
            "source": 1
        }
    ],
    "materials": [
        {
            "name": "Material #20",
            "alphaMode": "BLEND",
            "extras": {
                "fromFBX": {
                    "shadingModel": "Phong",
                    "isTruePBR": false
                }
            },
            "pbrMetallicRoughness": {
                "baseColorTexture": {
                    "index": 0,
                    "texCoord": 0
                },
                "baseColorFactor": [
                    1.0,
                    1.0,
                    1.0,
                    1.0
                ],
                "metallicFactor": 0.400000005960464,
                "roughnessFactor": 0.70710676908493
            }
        },
        {
            "name": "Material #12",
            "alphaMode": "OPAQUE",
            "extras": {
                "fromFBX": {
                    "shadingModel": "Phong",
                    "isTruePBR": false
                }
            },
            "pbrMetallicRoughness": {
                "baseColorTexture": {
                    "index": 1,
                    "texCoord": 0
                },
                "baseColorFactor": [
                    1.0,
                    1.0,
                    1.0,
                    1.0
                ],
                "metallicFactor": 0.400000005960464,
                "roughnessFactor": 0.70710676908493
            }
        }
    ],
    "meshes": [
        {
            "name": "tyre2",
            "primitives": [
                {
                    "material": 1,
                    "mode": 4,
                    "attributes": {
                        "NORMAL": 5,
                        "POSITION": 4,
                        "TEXCOORD_0": 6
                    },
                    "indices": 3
                }
            ]
        },
        {
            "name": "tyre4",
            "primitives": [
                {
                    "material": 1,
                    "mode": 4,
                    "attributes": {
                        "NORMAL": 9,
                        "POSITION": 8,
                        "TEXCOORD_0": 10
                    },
                    "indices": 7
                }
            ]
        },
        {
            "name": "tyre1",
            "primitives": [
                {
                    "material": 1,
                    "mode": 4,
                    "attributes": {
                        "NORMAL": 13,
                        "POSITION": 12,
                        "TEXCOORD_0": 14
                    },
                    "indices": 11
                }
            ]
        },
        {
            "name": "tyre3",
            "primitives": [
                {
                    "material": 1,
                    "mode": 4,
                    "attributes": {
                        "NORMAL": 17,
                        "POSITION": 16,
                        "TEXCOORD_0": 18
                    },
                    "indices": 15
                }
            ]
        },
        {
            "name": "taxi06",
            "primitives": [
                {
                    "material": 0,
                    "mode": 4,
                    "attributes": {
                        "NORMAL": 21,
                        "POSITION": 20,
                        "TEXCOORD_0": 22
                    },
                    "indices": 19
                }
            ]
        },
        {
            "name": "light1",
            "primitives": [
                {
                    "material": 0,
                    "mode": 4,
                    "attributes": {
                        "NORMAL": 25,
                        "POSITION": 24,
                        "TEXCOORD_0": 26
                    },
                    "indices": 23
                }
            ]
        }
    ],
    "animations": [
        {
            "name": "Take 001",
            "channels": [
                {
                    "sampler": 0,
                    "target": {
                        "node": 4,
                        "path": "rotation"
                    }
                },
                {
                    "sampler": 1,
                    "target": {
                        "node": 5,
                        "path": "rotation"
                    }
                }
            ],
            "samplers": [
                {
                    "input": 0,
                    "interpolation": "LINEAR",
                    "output": 1
                },
                {
                    "input": 0,
                    "interpolation": "LINEAR",
                    "output": 2
                }
            ]
        }
    ],
    "nodes": [
        {
            "name": "RootNode",
            "translation": [
                0.0,
                0.0,
                0.0
            ],
            "rotation": [
                0.0,
                0.0,
                0.0,
                1.0
            ],
            "scale": [
                1.0,
                1.0,
                1.0
            ],
            "children": [
                1,
                2,
                3,
                4,
                5,
                6
            ]
        },
        {
            "name": "taxi06",
            "translation": [
                0.0,
                0.0,
                0.0
            ],
            "rotation": [
                1.37678767941907e-07,
                0.70710676908493,
                0.70710676908493,
                -1.37678767941907e-07
            ],
            "scale": [
                128.477294921875,
                128.477294921875,
                128.477294921875
            ],
            "mesh": 4
        },
        {
            "name": "tyre2",
            "translation": [
                0.233829155564308,
                0.104158647358418,
                0.341952174901962
            ],
            "rotation": [
                1.37678767941907e-07,
                0.70710676908493,
                0.70710676908493,
                -1.37678767941907e-07
            ],
            "scale": [
                128.477294921875,
                128.477294921875,
                128.477294921875
            ],
            "mesh": 0
        },
        {
            "name": "tyre4",
            "translation": [
                0.233829185366631,
                0.10415868461132,
                -0.400363445281982
            ],
            "rotation": [
                1.37678767941907e-07,
                0.70710676908493,
                0.70710676908493,
                -1.37678767941907e-07
            ],
            "scale": [
                128.477294921875,
                128.477294921875,
                128.477294921875
            ],
            "mesh": 1
        },
        {
            "name": "tyre1",
            "translation": [
                -0.233164444565773,
                0.104158647358418,
                0.341952174901962
            ],
            "rotation": [
                -1.37678767941907e-07,
                0.707106828689575,
                -0.70710676908493,
                -1.37678782152761e-07
            ],
            "scale": [
                -128.477294921875,
                -128.477294921875,
                -128.477294921875
            ],
            "mesh": 2
        },
        {
            "name": "tyre3",
            "translation": [
                -0.233164414763451,
                0.10415868461132,
                -0.400386869907379
            ],
            "rotation": [
                -1.37678767941907e-07,
                0.707106828689575,
                -0.70710676908493,
                -1.37678782152761e-07
            ],
            "scale": [
                -128.477294921875,
                -128.477294921875,
                -128.477294921875
            ],
            "mesh": 3
        },
        {
            "name": "light1",
            "translation": [
                2.34395898246476e-07,
                0.139925539493561,
                0.552756369113922
            ],
            "rotation": [
                1.37678767941907e-07,
                0.70710676908493,
                0.70710676908493,
                -1.37678767941907e-07
            ],
            "scale": [
                128.477294921875,
                128.477294921875,
                128.477294921875
            ],
            "mesh": 5
        }
    ]
}