{
    "asset": {
        "generator": "FBX2glTF v0.9.7",
        "version": "2.0"
    },
    "scene": 0,
    "buffers": [
        {
            "byteLength": 160328,
            "uri": "buffer.bin"
        }
    ],
    "bufferViews": [
        {
            "buffer": 0,
            "byteLength": 14964,
            "byteOffset": 0,
            "target": 34963
        },
        {
            "buffer": 0,
            "byteLength": 31968,
            "byteOffset": 14964,
            "target": 34962
        },
        {
            "buffer": 0,
            "byteLength": 31968,
            "byteOffset": 46932,
            "target": 34962
        },
        {
            "buffer": 0,
            "byteLength": 21312,
            "byteOffset": 78900,
            "target": 34962
        },
        {
            "buffer": 0,
            "byteLength": 21312,
            "byteOffset": 100212,
            "target": 34962
        },
        {
            "buffer": 0,
            "byteLength": 1200,
            "byteOffset": 121524,
            "target": 34963
        },
        {
            "buffer": 0,
            "byteLength": 2496,
            "byteOffset": 122724,
            "target": 34962
        },
        {
            "buffer": 0,
            "byteLength": 2496,
            "byteOffset": 125220,
            "target": 34962
        },
        {
            "buffer": 0,
            "byteLength": 1664,
            "byteOffset": 127716,
            "target": 34962
        },
        {
            "buffer": 0,
            "byteLength": 1664,
            "byteOffset": 129380,
            "target": 34962
        },
        {
            "buffer": 0,
            "byteLength": 1200,
            "byteOffset": 131044,
            "target": 34963
        },
        {
            "buffer": 0,
            "byteLength": 2496,
            "byteOffset": 132244,
            "target": 34962
        },
        {
            "buffer": 0,
            "byteLength": 2496,
            "byteOffset": 134740,
            "target": 34962
        },
        {
            "buffer": 0,
            "byteLength": 1664,
            "byteOffset": 137236,
            "target": 34962
        },
        {
            "buffer": 0,
            "byteLength": 1664,
            "byteOffset": 138900,
            "target": 34962
        },
        {
            "buffer": 0,
            "byteLength": 84,
            "byteOffset": 140564,
            "target": 34963
        },
        {
            "buffer": 0,
            "byteLength": 192,
            "byteOffset": 140648,
            "target": 34962
        },
        {
            "buffer": 0,
            "byteLength": 192,
            "byteOffset": 140840,
            "target": 34962
        },
        {
            "buffer": 0,
            "byteLength": 128,
            "byteOffset": 141032,
            "target": 34962
        },
        {
            "buffer": 0,
            "byteLength": 128,
            "byteOffset": 141160,
            "target": 34962
        },
        {
            "buffer": 0,
            "byteLength": 1200,
            "byteOffset": 141288,
            "target": 34963
        },
        {
            "buffer": 0,
            "byteLength": 2496,
            "byteOffset": 142488,
            "target": 34962
        },
        {
            "buffer": 0,
            "byteLength": 2496,
            "byteOffset": 144984,
            "target": 34962
        },
        {
            "buffer": 0,
            "byteLength": 1664,
            "byteOffset": 147480,
            "target": 34962
        },
        {
            "buffer": 0,
            "byteLength": 1664,
            "byteOffset": 149144,
            "target": 34962
        },
        {
            "buffer": 0,
            "byteLength": 1200,
            "byteOffset": 150808,
            "target": 34963
        },
        {
            "buffer": 0,
            "byteLength": 2496,
            "byteOffset": 152008,
            "target": 34962
        },
        {
            "buffer": 0,
            "byteLength": 2496,
            "byteOffset": 154504,
            "target": 34962
        },
        {
            "buffer": 0,
            "byteLength": 1664,
            "byteOffset": 157000,
            "target": 34962
        },
        {
            "buffer": 0,
            "byteLength": 1664,
            "byteOffset": 158664,
            "target": 34962
        }
    ],
    "scenes": [
        {
            "name": "Root Scene",
            "nodes": [
                0
            ]
        }
    ],
    "accessors": [
        {
            "componentType": 5123,
            "type": "SCALAR",
            "count": 7482,
            "bufferView": 0,
            "byteOffset": 0
        },
        {
            "componentType": 5126,
            "type": "VEC3",
            "count": 2664,
            "bufferView": 1,
            "byteOffset": 0,
            "min": [
                -0.00100556458346546,
                -0.00169851793907583,
                0.000242888025240973
            ],
            "max": [
                0.00100232020486146,
                0.00169851793907583,
                0.00167951779440045
            ]
        },
        {
            "componentType": 5126,
            "type": "VEC3",
            "count": 2664,
            "bufferView": 2,
            "byteOffset": 0
        },
        {
            "componentType": 5126,
            "type": "VEC2",
            "count": 2664,
            "bufferView": 3,
            "byteOffset": 0
        },
        {
            "componentType": 5126,
            "type": "VEC2",
            "count": 2664,
            "bufferView": 4,
            "byteOffset": 0
        },
        {
            "componentType": 5123,
            "type": "SCALAR",
            "count": 600,
            "bufferView": 5,
            "byteOffset": 0
        },
        {
            "componentType": 5126,
            "type": "VEC3",
            "count": 208,
            "bufferView": 6,
            "byteOffset": 0,
            "min": [
                -0.000107589381514117,
                -0.000269366253633052,
                -0.000269365758867934
            ],
            "max": [
                0.000107589294202626,
                0.000269365991698578,
                0.000269365758867934
            ]
        },
        {
            "componentType": 5126,
            "type": "VEC3",
            "count": 208,
            "bufferView": 7,
            "byteOffset": 0
        },
        {
            "componentType": 5126,
            "type": "VEC2",
            "count": 208,
            "bufferView": 8,
            "byteOffset": 0
        },
        {
            "componentType": 5126,
            "type": "VEC2",
            "count": 208,
            "bufferView": 9,
            "byteOffset": 0
        },
        {
            "componentType": 5123,
            "type": "SCALAR",
            "count": 600,
            "bufferView": 10,
            "byteOffset": 0
        },
        {
            "componentType": 5126,
            "type": "VEC3",
            "count": 208,
            "bufferView": 11,
            "byteOffset": 0,
            "min": [
                -0.000107589381514117,
                -0.000269366253633052,
                -0.000269365758867934
            ],
            "max": [
                0.000107589294202626,
                0.000269365991698578,
                0.000269365758867934
            ]
        },
        {
            "componentType": 5126,
            "type": "VEC3",
            "count": 208,
            "bufferView": 12,
            "byteOffset": 0
        },
        {
            "componentType": 5126,
            "type": "VEC2",
            "count": 208,
            "bufferView": 13,
            "byteOffset": 0
        },
        {
            "componentType": 5126,
            "type": "VEC2",
            "count": 208,
            "bufferView": 14,
            "byteOffset": 0
        },
        {
            "componentType": 5123,
            "type": "SCALAR",
            "count": 42,
            "bufferView": 15,
            "byteOffset": 0
        },
        {
            "componentType": 5126,
            "type": "VEC3",
            "count": 16,
            "bufferView": 16,
            "byteOffset": 0,
            "min": [
                -0.000879421946592629,
                -4.60597875644453e-05,
                -0.000216186861507595
            ],
            "max": [
                0.000879421888384968,
                4.60602350358386e-05,
                0.000216186788748018
            ]
        },
        {
            "componentType": 5126,
            "type": "VEC3",
            "count": 16,
            "bufferView": 17,
            "byteOffset": 0
        },
        {
            "componentType": 5126,
            "type": "VEC2",
            "count": 16,
            "bufferView": 18,
            "byteOffset": 0
        },
        {
            "componentType": 5126,
            "type": "VEC2",
            "count": 16,
            "bufferView": 19,
            "byteOffset": 0
        },
        {
            "componentType": 5123,
            "type": "SCALAR",
            "count": 600,
            "bufferView": 20,
            "byteOffset": 0
        },
        {
            "componentType": 5126,
            "type": "VEC3",
            "count": 208,
            "bufferView": 21,
            "byteOffset": 0,
            "min": [
                -0.000107589476101566,
                -0.000269366311840713,
                -0.000269365875283256
            ],
            "max": [
                0.000107589650724549,
                0.000269365875283256,
                0.000269365729764104
            ]
        },
        {
            "componentType": 5126,
            "type": "VEC3",
            "count": 208,
            "bufferView": 22,
            "byteOffset": 0
        },
        {
            "componentType": 5126,
            "type": "VEC2",
            "count": 208,
            "bufferView": 23,
            "byteOffset": 0
        },
        {
            "componentType": 5126,
            "type": "VEC2",
            "count": 208,
            "bufferView": 24,
            "byteOffset": 0
        },
        {
            "componentType": 5123,
            "type": "SCALAR",
            "count": 600,
            "bufferView": 25,
            "byteOffset": 0
        },
        {
            "componentType": 5126,
            "type": "VEC3",
            "count": 208,
            "bufferView": 26,
            "byteOffset": 0,
            "min": [
                -0.000107589847175404,
                -0.00026936613721773,
                -0.000269365671556443
            ],
            "max": [
                0.000107589061371982,
                0.000269366049906239,
                0.000269365904387087
            ]
        },
        {
            "componentType": 5126,
            "type": "VEC3",
            "count": 208,
            "bufferView": 27,
            "byteOffset": 0
        },
        {
            "componentType": 5126,
            "type": "VEC2",
            "count": 208,
            "bufferView": 28,
            "byteOffset": 0
        },
        {
            "componentType": 5126,
            "type": "VEC2",
            "count": 208,
            "bufferView": 29,
            "byteOffset": 0
        }
    ],
    "images": [
        {
            "name": "taxi05Green.png",
            "uri": "taxi05Green.png"
        },
        {
            "name": "taxi05Green.png",
            "uri": "taxi05Green.png"
        },
        {
            "name": "taxi05Green.png",
            "uri": "taxi05Green.png"
        }
    ],
    "samplers": [
        {}
    ],
    "textures": [
        {
            "name": "贴图 #21",
            "sampler": 0,
            "source": 0
        },
        {
            "name": "贴图 #20",
            "sampler": 0,
            "source": 1
        },
        {
            "name": "贴图 #19",
            "sampler": 0,
            "source": 2
        }
    ],
    "materials": [
        {
            "name": "Material #22",
            "alphaMode": "BLEND",
            "extras": {
                "fromFBX": {
                    "shadingModel": "Phong",
                    "isTruePBR": false
                }
            },
            "pbrMetallicRoughness": {
                "baseColorTexture": {
                    "index": 0,
                    "texCoord": 0
                },
                "baseColorFactor": [
                    1.0,
                    1.0,
                    1.0,
                    1.0
                ],
                "metallicFactor": 0.400000005960464,
                "roughnessFactor": 0.70710676908493
            }
        },
        {
            "name": "Material #21",
            "alphaMode": "BLEND",
            "extras": {
                "fromFBX": {
                    "shadingModel": "Phong",
                    "isTruePBR": false
                }
            },
            "pbrMetallicRoughness": {
                "baseColorTexture": {
                    "index": 1,
                    "texCoord": 0
                },
                "baseColorFactor": [
                    1.0,
                    1.0,
                    1.0,
                    1.0
                ],
                "metallicFactor": 0.400000005960464,
                "roughnessFactor": 0.70710676908493
            }
        },
        {
            "name": "Material #20",
            "alphaMode": "BLEND",
            "extras": {
                "fromFBX": {
                    "shadingModel": "Phong",
                    "isTruePBR": false
                }
            },
            "pbrMetallicRoughness": {
                "baseColorTexture": {
                    "index": 2,
                    "texCoord": 0
                },
                "baseColorFactor": [
                    1.0,
                    1.0,
                    1.0,
                    1.0
                ],
                "metallicFactor": 0.400000005960464,
                "roughnessFactor": 0.70710676908493
            }
        }
    ],
    "meshes": [
        {
            "name": "CityCar_01_005",
            "primitives": [
                {
                    "material": 0,
                    "mode": 4,
                    "attributes": {
                        "NORMAL": 2,
                        "POSITION": 1,
                        "TEXCOORD_0": 3,
                        "TEXCOORD_1": 4
                    },
                    "indices": 0
                }
            ]
        },
        {
            "name": "tyre1",
            "primitives": [
                {
                    "material": 0,
                    "mode": 4,
                    "attributes": {
                        "NORMAL": 7,
                        "POSITION": 6,
                        "TEXCOORD_0": 8,
                        "TEXCOORD_1": 9
                    },
                    "indices": 5
                }
            ]
        },
        {
            "name": "tyre3",
            "primitives": [
                {
                    "material": 0,
                    "mode": 4,
                    "attributes": {
                        "NORMAL": 12,
                        "POSITION": 11,
                        "TEXCOORD_0": 13,
                        "TEXCOORD_1": 14
                    },
                    "indices": 10
                }
            ]
        },
        {
            "name": "light1",
            "primitives": [
                {
                    "material": 1,
                    "mode": 4,
                    "attributes": {
                        "NORMAL": 17,
                        "POSITION": 16,
                        "TEXCOORD_0": 18,
                        "TEXCOORD_1": 19
                    },
                    "indices": 15
                }
            ]
        },
        {
            "name": "tyre2",
            "primitives": [
                {
                    "material": 2,
                    "mode": 4,
                    "attributes": {
                        "NORMAL": 22,
                        "POSITION": 21,
                        "TEXCOORD_0": 23,
                        "TEXCOORD_1": 24
                    },
                    "indices": 20
                }
            ]
        },
        {
            "name": "tyre3",
            "primitives": [
                {
                    "material": 2,
                    "mode": 4,
                    "attributes": {
                        "NORMAL": 27,
                        "POSITION": 26,
                        "TEXCOORD_0": 28,
                        "TEXCOORD_1": 29
                    },
                    "indices": 25
                }
            ]
        }
    ],
    "nodes": [
        {
            "name": "RootNode",
            "translation": [
                0.0,
                0.0,
                0.0
            ],
            "rotation": [
                0.0,
                0.0,
                0.0,
                1.0
            ],
            "scale": [
                1.0,
                1.0,
                1.0
            ],
            "children": [
                1,
                2,
                3,
                4,
                5,
                6
            ]
        },
        {
            "name": "CityCar_01_005",
            "translation": [
                0.0,
                0.0,
                0.0
            ],
            "rotation": [
                0.70710676908493,
                9.33414807171304e-15,
                -2.1354030366183e-07,
                0.707106828689575
            ],
            "scale": [
                -313.545288085938,
                -313.545288085938,
                -313.545288085938
            ],
            "mesh": 0
        },
        {
            "name": "light1",
            "translation": [
                1.17517409137236e-07,
                0.205195784568787,
                0.495395749807358
            ],
            "rotation": [
                -1.60155224193659e-07,
                0.707106828689575,
                -0.707106709480286,
                5.33850545991754e-08
            ],
            "scale": [
                -313.545288085938,
                -313.545288085938,
                -313.545288085938
            ],
            "mesh": 3
        },
        {
            "name": "tyre2",
            "translation": [
                0.268910795450211,
                0.0946801155805588,
                0.337204456329346
            ],
            "rotation": [
                0.707105875015259,
                1.06769995511513e-07,
                1.23634620763369e-07,
                0.707107722759247
            ],
            "scale": [
                -313.545288085938,
                -313.545288085938,
                -313.545288085938
            ],
            "mesh": 4
        },
        {
            "name": "tyre3",
            "translation": [
                0.268910735845566,
                0.0946800708770752,
                -0.308667898178101
            ],
            "rotation": [
                0.70710676908493,
                8.42936955791629e-08,
                -2.24764580281089e-08,
                0.70710676908493
            ],
            "scale": [
                -313.545288085938,
                -313.545288085938,
                -313.545288085938
            ],
            "mesh": 5
        },
        {
            "name": "tyre1",
            "translation": [
                -0.26930633187294,
                0.0946004837751389,
                0.337269246578217
            ],
            "rotation": [
                0.70710676908493,
                8.42936955791629e-08,
                -2.24764580281089e-08,
                0.70710676908493
            ],
            "scale": [
                -313.545288085938,
                -313.545288085938,
                -313.545288085938
            ],
            "mesh": 1
        },
        {
            "name": "tyre3",
            "translation": [
                -0.269306302070618,
                0.0946005135774612,
                -0.308875620365143
            ],
            "rotation": [
                0.70710676908493,
                8.42936955791629e-08,
                -2.24764580281089e-08,
                0.70710676908493
            ],
            "scale": [
                -313.545288085938,
                -313.545288085938,
                -313.545288085938
            ],
            "mesh": 2
        }
    ]
}